HIERARCHY
ROOT Hips
{
	OFFSET 0.000000 0.000000 0.000000
	CHANNELS 6 Xposition Yposition Zposition Zrotation Yrotation Xrotation 
	JOINT LHipJoint
	{
		OFFSET 0.000000 0.000000 0.000000
		CHANNELS 3 Zrotation Yrotation Xrotation
		JOINT LeftUpLeg
		{
			OFFSET 1.363060 -1.794630 0.839290
			CHANNELS 3 Zrotation Yrotation Xrotation
			JOINT LeftLeg
			{
				OFFSET 2.448110 -6.726130 0.000000
				CHANNELS 3 Zrotation Yrotation Xrotation
				JOINT LeftFoot
				{
					OFFSET 2.562200 -7.039590 0.000000
					CHANNELS 3 Zrotation Yrotation Xrotation
					JOINT LeftToeBase
					{
						OFFSET 0.157640 -0.433110 2.322550
						CHANNELS 3 Zrotation Yrotation Xrotation
						End Site
						{
							OFFSET 0.000000 0.000000 0.000000
						}
					}
				}
			}
		}
	}
	JOINT RHipJoint
	{
		OFFSET 0.000000 0.000000 0.000000
		CHANNELS 3 Zrotation Yrotation Xrotation
		JOINT RightUpLeg
		{
			OFFSET -1.305520 -1.794630 0.839290
			CHANNELS 3 Zrotation Yrotation Xrotation
			JOINT RightLeg
			{
				OFFSET -2.542530 -6.985550 0.000000
				CHANNELS 3 Zrotation Yrotation Xrotation
				JOINT RightFoot
				{
					OFFSET -2.568260 -7.056230 0.000000
					CHANNELS 3 Zrotation Yrotation Xrotation
					JOINT RightToeBase
					{
						OFFSET -0.164730 -0.452590 2.363150
						CHANNELS 3 Zrotation Yrotation Xrotation
						End Site
						{
							OFFSET 0.000000 0.000000 0.000000
						}
					}
				}
			}
		}
	}
	JOINT LowerBack
	{
		OFFSET 0.000000 0.000000 0.000000
		CHANNELS 3 Zrotation Yrotation Xrotation
		JOINT Spine
		{
			OFFSET 0.028270 2.035590 -0.193380
			CHANNELS 3 Zrotation Yrotation Xrotation
			JOINT Spine1
			{
				OFFSET 0.056720 2.048850 -0.042750
				CHANNELS 3 Zrotation Yrotation Xrotation
				JOINT Neck
				{
					OFFSET 0.000000 0.000000 0.000000
					CHANNELS 3 Zrotation Yrotation Xrotation
					JOINT Neck1
					{
						OFFSET -0.054170 1.746240 0.172020
						CHANNELS 3 Zrotation Yrotation Xrotation
						JOINT Head
						{
							OFFSET 0.104070 1.761360 -0.123970
							CHANNELS 3 Zrotation Yrotation Xrotation
							End Site
							{
								OFFSET 0.000000 0.000000 0.000000
							}
						}
					}
				}
				JOINT LeftShoulder
				{
					OFFSET 0.000000 0.000000 0.000000
					CHANNELS 3 Zrotation Yrotation Xrotation
					JOINT LeftArm
					{
						OFFSET 3.362410 1.200890 -0.311210
						CHANNELS 3 Zrotation Yrotation Xrotation
						JOINT LeftForeArm
						{
							OFFSET 4.983000 -0.000000 -0.000000
							CHANNELS 3 Zrotation Yrotation Xrotation
							JOINT LeftHand
							{
								OFFSET 3.483560 -0.000000 -0.000000
								CHANNELS 3 Zrotation Yrotation Xrotation
								JOINT LeftFingerBase
								{
									OFFSET 0.000000 0.000000 0.000000
									CHANNELS 3 Zrotation Yrotation Xrotation
									JOINT LeftHandIndex1
									{
										OFFSET 0.715260 -0.000000 -0.000000
										CHANNELS 3 Zrotation Yrotation Xrotation
										End Site
										{
											OFFSET 0.000000 0.000000 0.000000
										}
									}
								}
								JOINT LThumb
								{
									OFFSET 0.000000 0.000000 0.000000
									CHANNELS 3 Zrotation Yrotation Xrotation
									End Site
									{
										OFFSET 0.000000 0.000000 0.000000
									}
								}
							}
						}
					}
				}
				JOINT RightShoulder
				{
					OFFSET 0.000000 0.000000 0.000000
					CHANNELS 3 Zrotation Yrotation Xrotation
					JOINT RightArm
					{
						OFFSET -3.136600 1.374050 -0.404650
						CHANNELS 3 Zrotation Yrotation Xrotation
						JOINT RightForeArm
						{
							OFFSET -5.241900 -0.000000 -0.000000
							CHANNELS 3 Zrotation Yrotation Xrotation
							JOINT RightHand
							{
								OFFSET -3.444170 -0.000000 -0.000000
								CHANNELS 3 Zrotation Yrotation Xrotation
								JOINT RightFingerBase
								{
									OFFSET 0.000000 0.000000 0.000000
									CHANNELS 3 Zrotation Yrotation Xrotation
									JOINT RightHandIndex1
									{
										OFFSET -0.622530 -0.000000 -0.000000
										CHANNELS 3 Zrotation Yrotation Xrotation
										End Site
										{
											OFFSET 0.000000 0.000000 0.000000
										}
									}
								}
								JOINT RThumb
								{
									OFFSET 0.000000 0.000000 0.000000
									CHANNELS 3 Zrotation Yrotation Xrotation
									End Site
									{
										OFFSET 0.000000 0.000000 0.000000
									}
								}
							}
						}
					}
				}
			}
		}
	}
}
MOTION
Frames: 9
Frame Time: 0.008333
3.436972 16.005370 0.990266 13.398699 -88.416965 25.751453 -9.063080 -0.833231 -1.993208 -17.707245 3.898222 -70.243326 -2.887857 4.328228 48.297810 2.710178 9.262938 -16.586370 -1.146600 -0.000001 -38.761200 8.186662 2.462432 -2.443863 11.858606 -9.872722 -68.977266 3.185801 -5.231261 47.623404 -1.165957 -2.094575 -11.607530 -0.019401 -0.000000 -69.055901 1.729825 -3.376280 7.709896 0.203898 -3.448191 -2.142117 -3.653686 -3.408923 -3.480960 6.653155 -12.169755 -7.133378 -1.458904 -0.085371 -0.361121 0.000000 0.000000 0.000000 21.354958 -3.206445 -0.067832 -80.194667 6.025472 3.928656 178.606320 -52.953179 179.915218 8.450681 0.810052 0.017552 -0.038679 0.594144 0.000000 0.000000 0.000000 0.000000 0.000000 0.000000 0.000000 -4.578979 -5.797322 1.400499 78.480740 -3.642991 19.376627 -179.584139 71.418523 179.880280 -14.443775 2.702070 -0.415877 0.239079 -0.541090 0.000000 0.000000 0.000000 0.000000 0.000000 0.000000 0.000000 
3.441464 16.008951 0.988454 13.601879 -87.612740 25.342914 -9.077374 -0.869252 -1.944471 -17.542223 3.465692 -69.878681 -2.848189 4.259590 48.183613 2.667120 9.111547 -16.455969 -1.111600 -0.000000 -38.832900 8.186178 2.491505 -2.601446 11.800567 -10.403898 -68.651372 3.169186 -5.257847 47.769412 -1.254659 -2.480390 -11.804389 -0.002000 -0.000000 -69.009500 1.752398 -3.308627 7.824215 0.218521 -3.382006 -2.149723 -3.569801 -3.343720 -3.612874 6.448872 -11.803235 -7.061028 -1.451390 -0.085837 -0.343529 0.000000 0.000000 0.000000 21.327248 -3.304131 -0.053451 -80.385650 5.891209 4.417533 178.582222 -52.985239 179.915305 8.413066 0.782920 0.015330 -0.035272 0.596314 0.000000 0.000000 0.000000 0.000000 0.000000 0.000000 0.000000 -4.831767 -5.340495 1.435898 78.696052 -3.919392 18.970229 -179.555061 71.712713 179.878814 -14.619414 2.638348 -0.412307 0.236667 -0.538778 0.000000 0.000000 0.000000 0.000000 0.000000 0.000000 0.000000 
3.445380 16.014671 0.986525 13.726919 -86.781862 24.987876 -9.094528 -0.906471 -1.892410 -17.375506 3.030033 -69.464401 -2.808849 4.183729 48.030705 2.621405 8.954847 -16.305255 -1.073400 -0.000000 -38.915500 8.184976 2.515774 -2.762264 11.738503 -10.960855 -68.270549 3.155512 -5.279107 47.872618 -1.344506 -2.877659 -11.985830 0.016600 -0.000000 -68.971100 1.774317 -3.230899 7.935649 0.234181 -3.305643 -2.159670 -3.478597 -3.268294 -3.753066 6.232602 -11.402650 -6.977277 -1.438595 -0.086114 -0.322375 0.000000 0.000000 0.000000 21.307187 -3.402601 -0.038090 -80.561478 5.730852 4.946759 178.558953 -53.031666 179.915446 8.371230 0.763586 0.013606 -0.031791 0.598382 0.000000 0.000000 0.000000 0.000000 0.000000 0.000000 0.000000 -5.131749 -4.836799 1.469239 78.882316 -4.173156 18.503040 -179.525826 71.964223 179.877266 -14.789232 2.575322 -0.408537 0.234173 -0.537071 0.000000 0.000000 0.000000 0.000000 0.000000 0.000000 0.000000 
3.448292 16.022283 0.984256 13.858404 -85.924509 24.610952 -9.111624 -0.942677 -1.832478 -17.212343 2.580690 -69.010638 -2.769481 4.100085 47.839388 2.574689 8.798853 -16.133431 -1.032200 0.000001 -39.011100 8.186231 2.535202 -2.918626 11.663926 -11.533583 -67.851374 3.143230 -5.295925 47.938931 -1.436793 -3.291514 -12.152111 0.036000 -0.000000 -68.934100 1.787278 -3.142552 8.030851 0.248973 -3.218270 -2.173589 -3.381086 -3.181749 -3.896336 6.012524 -10.990470 -6.883490 -1.421026 -0.086248 -0.297581 0.000000 0.000000 0.000000 21.307307 -3.512230 -0.025582 -80.730872 5.554026 5.506911 178.533423 -53.085731 179.915706 8.319685 0.747537 0.012180 -0.027823 0.600334 0.000000 0.000000 0.000000 0.000000 0.000000 0.000000 0.000000 -5.464006 -4.311139 1.500459 79.016398 -4.376700 17.996295 -179.499235 72.177138 179.875653 -14.956376 2.496136 -0.402366 0.232173 -0.535616 0.000000 0.000000 0.000000 0.000000 0.000000 0.000000 0.000000 
3.450389 16.032030 0.981944 13.930601 -85.047570 24.268939 -9.131238 -0.978992 -1.767227 -17.046586 2.130945 -68.509154 -2.730126 4.009888 47.611189 2.526341 8.641486 -15.943100 -0.988700 -0.000000 -39.113100 8.187549 2.548625 -3.075328 11.587122 -12.126961 -67.377214 3.134102 -5.306756 47.960037 -1.529442 -3.713702 -12.301048 0.055800 0.000000 -68.900100 1.797237 -3.044523 8.117183 0.264399 -3.121037 -2.188798 -3.276570 -3.085149 -4.038624 5.786743 -10.562708 -6.777335 -1.398016 -0.086216 -0.268605 0.000000 0.000000 0.000000 21.317006 -3.611872 -0.015529 -80.882741 5.344664 6.103798 178.507863 -53.152789 179.916029 8.265774 0.742279 0.011653 -0.023830 0.601977 0.000000 0.000000 0.000000 0.000000 0.000000 0.000000 0.000000 -5.834304 -3.764328 1.525303 79.098141 -4.507087 17.443528 -179.475315 72.360060 179.874065 -15.108698 2.403366 -0.393794 0.230313 -0.534440 0.000000 0.000000 0.000000 0.000000 0.000000 0.000000 0.000000 
3.451501 16.043706 0.979458 13.991280 -84.152342 23.918665 -9.151298 -1.013880 -1.693384 -16.882455 1.673241 -67.967600 -2.690497 3.912871 47.346045 2.477744 8.487994 -15.733875 -0.943100 -0.000000 -39.224000 8.190983 2.556223 -3.226726 11.501537 -12.733492 -66.860987 3.126947 -5.312272 47.940573 -1.623086 -4.146540 -12.432545 0.075900 -0.000000 -68.863400 1.796744 -2.937339 8.184977 0.278719 -3.014215 -2.206076 -3.166383 -2.978702 -4.174590 5.562824 -10.141823 -6.660616 -1.369881 -0.086037 -0.235573 0.000000 0.000000 0.000000 21.346117 -3.708143 -0.010994 -81.023855 5.112609 6.726966 178.479767 -53.228021 179.916472 8.204565 0.742437 0.011424 -0.019435 0.603336 0.000000 0.000000 0.000000 0.000000 0.000000 0.000000 0.000000 -6.229699 -3.222055 1.542950 79.105569 -4.533728 16.864639 -179.455951 72.518086 179.872452 -15.257832 2.276810 -0.380220 0.229280 -0.533133 0.000000 0.000000 0.000000 0.000000 0.000000 0.000000 0.000000 
3.451514 16.057278 0.976846 14.041951 -83.242487 23.559798 -9.171734 -1.046668 -1.610285 -16.719974 1.208737 -67.386635 -2.650600 3.809481 47.044490 2.429312 8.340025 -15.506675 -0.896000 -0.000000 -39.343200 8.196810 2.557754 -3.372004 11.407926 -13.351955 -66.302807 3.122021 -5.312209 47.879429 -1.716950 -4.586592 -12.545790 0.095600 0.000000 -68.821400 1.783938 -2.822344 8.232563 0.291634 -2.899125 -2.224629 -3.050545 -2.863694 -4.299694 5.343726 -9.739006 -6.534174 -1.336858 -0.085723 -0.198631 0.000000 0.000000 0.000000 21.396108 -3.795953 -0.013100 -81.154993 4.859327 7.370964 178.448200 -53.306109 179.917033 8.135249 0.745539 0.011491 -0.014553 0.604439 0.000000 0.000000 0.000000 0.000000 0.000000 0.000000 0.000000 -6.643608 -2.699757 1.551502 79.023949 -4.430152 16.267959 -179.442079 72.662653 179.870767 -15.413400 2.102875 -0.360044 0.229471 -0.531386 0.000000 0.000000 0.000000 0.000000 0.000000 0.000000 0.000000 
3.450697 16.072925 0.974472 14.030543 -82.325268 23.235480 -9.194796 -1.078108 -1.520638 -16.551937 0.750663 -66.760642 -2.610509 3.701368 46.709210 2.380399 8.194796 -15.265433 -0.847900 -0.000001 -39.461200 8.202686 2.552587 -3.516373 11.317546 -13.986539 -65.688009 3.121006 -5.305004 47.769062 -1.808776 -5.024947 -12.638872 0.114700 0.000000 -68.776100 1.767187 -2.701721 8.267972 0.305159 -2.778272 -2.242353 -2.928522 -2.742654 -4.412565 5.126163 -9.344890 -6.396430 -1.298748 -0.085277 -0.157502 0.000000 0.000000 0.000000 21.455372 -3.858743 -0.019435 -81.267754 4.580426 8.033108 178.415239 -53.388596 179.917685 8.061356 0.753877 0.011855 -0.009450 0.605278 0.000000 0.000000 0.000000 0.000000 0.000000 0.000000 0.000000 -7.081643 -2.191721 1.547432 78.854254 -4.181300 15.638062 -179.432771 72.803682 179.868978 -15.576279 1.886067 -0.333469 0.230704 -0.529293 0.000000 0.000000 0.000000 0.000000 0.000000 0.000000 0.000000 
3.448797 16.090319 0.972054 14.022186 -81.399960 22.890754 -9.217391 -1.105970 -1.420629 -16.386748 0.285924 -66.098492 -2.570174 3.587766 46.338076 2.332614 8.058846 -15.007917 -0.798900 0.000000 -39.587499 8.211770 2.541847 -3.653023 11.218402 -14.630792 -65.035694 3.122319 -5.292188 47.617494 -1.899273 -5.463678 -12.712438 0.132700 -0.000000 -68.722100 1.733449 -2.577164 8.280432 0.316364 -2.652933 -2.260416 -2.801615 -2.616849 -4.508667 4.920385 -8.988051 -6.252257 -1.256787 -0.084737 -0.113276 0.000000 0.000000 0.000000 21.540933 -3.909806 -0.033032 -81.374878 4.294633 8.697736 178.376686 -53.464306 179.918486 7.974337 0.756051 0.011816 -0.003469 0.606053 -0.000000 0.000000 0.000000 0.000000 0.000000 0.000000 0.000000 -7.521271 -1.729487 1.532090 78.564454 -3.758186 15.000865 -179.429813 72.949649 179.866868 -15.779486 1.594628 -0.296490 0.234199 -0.526200 0.000000 0.000000 0.000000 0.000000 0.000000 0.000000 0.000000 
